<svg width="30" height="30" viewBox="0 0 30 30" fill="none" xmlns="http://www.w3.org/2000/svg">
<g id="Group">
<g id="Group_2">
<g id="Group_3">
<path id="Vector" d="M1.1618 0.114407C0.763926 0.254237 0.397878 0.533898 0.175066 0.864407C-2.4664e-07 1.11864 0 1.48729 0 15C0 28.6017 -2.4664e-07 28.8814 0.175066 29.1483C0.397878 29.5042 0.891247 29.8347 1.30504 29.9237C1.52785 29.9746 5.96817 30 15.0716 30C27.008 30 28.5358 29.9873 28.8223 29.8856C29.2361 29.7458 29.6021 29.4788 29.8249 29.1356C29.9841 28.8814 30 28.5636 30 18.0127C30 7.53814 29.9841 7.14407 29.8249 6.86441C29.7135 6.67373 28.3289 5.51695 25.6233 3.36864C22.1857 0.635593 21.5172 0.139831 21.2308 0.0762712C20.9761 0.0254238 17.8408 0 11.1724 0C2.70557 0.0127119 1.43236 0.0254237 1.1618 0.114407ZM28.1379 7.47458C28.1379 7.51271 26.4509 7.52542 24.3979 7.52542H20.6578V4.48729V1.43644L24.3979 4.43644C26.4668 6.08898 28.1379 7.44915 28.1379 7.47458ZM16.9496 8.97458V10.4873H18.7958H20.6419V12V13.5127H18.7958H16.9496V15.0254V16.5381H15.008H13.0663V15.0254V13.5127H11.2202H9.35809V12V10.4873H11.2042H13.0504V8.97458V7.46186H15.008H16.9496V8.97458ZM24.4456 20.2881V21.0636H15.008H5.57029V20.2881V19.5127H15.008H24.4456V20.2881ZM24.4456 24.7881V25.5636H15.008H5.57029V24.7881V24.0127H15.008H24.4456V24.7881Z" fill="#005473"/>
</g>
</g>
</g>
</svg>
