<svg width="30" height="30" viewBox="0 0 30 30" fill="none" xmlns="http://www.w3.org/2000/svg">
<g id="Group">
<g id="Group_2">
<g id="Group_3">
<path id="Vector" d="M0 7.98906V15.9903H1.0678C2.0339 15.9903 2.12288 15.9781 2.08475 15.856C2.05932 15.7827 2.00847 15.5506 1.95763 15.3551C1.85593 14.9398 1.7161 14.7932 1.43644 14.7932H1.25847V8.24559C1.25847 3.04171 1.2839 1.7102 1.36017 1.74684C1.41102 1.75906 4.43644 3.5059 8.07203 5.61922L14.6949 9.45495L15.3305 9.08848C15.6864 8.88081 18.7246 7.20726 22.0678 5.33826C25.4237 3.48147 28.2966 1.88122 28.4619 1.79571L28.7542 1.62469V8.23338V14.8299L20.4915 14.8421C15.9407 14.8421 12.178 14.8543 12.1271 14.8543C12.0763 14.8665 11.9746 14.9642 11.8983 15.0986C11.8347 15.2208 11.6314 15.4773 11.4661 15.6605L11.1483 15.9903H20.5805H30V7.98906V0H15H0V7.98906ZM27.0254 1.22157C26.8983 1.3193 14.7458 8.02571 14.6949 8.02571C14.6441 8.02571 14.3898 7.89134 14.1229 7.73253C13.8559 7.57373 11.2246 6.05898 8.27542 4.34879C5.33898 2.65081 2.91102 1.246 2.8983 1.22157C2.88559 1.20935 8.30085 1.19714 14.9619 1.19714C21.6229 1.19714 27.0381 1.20935 27.0254 1.22157Z" fill="#005473"/>
<path id="Vector_2" d="M6.86434 7.75584C6.7118 7.8047 6.48298 7.92686 6.35587 8.01237C5.97451 8.28112 2.83468 11.3595 2.68214 11.6282C1.894 12.8986 2.27536 15.2441 3.7118 17.9682C6.05078 22.4025 10.411 26.6413 14.8093 28.7058C16.5889 29.5486 17.8347 29.9029 19.3601 29.9884C20.2118 30.0373 20.8982 29.9151 21.4067 29.6219C21.5593 29.5364 22.4745 28.718 23.4406 27.8018C25.2965 26.0427 25.5635 25.7007 25.5635 25.0899C25.5635 24.6868 25.3347 24.247 25.0042 23.9661C24.6609 23.6729 20.2245 21.1565 19.8177 21.0099C19.3982 20.8755 18.6482 20.9244 18.2542 21.132C18.0762 21.2175 17.6313 21.5962 17.2372 21.9627C16.8559 22.3414 16.4872 22.6468 16.4364 22.6468C16.2457 22.6468 15.216 22.1093 14.5804 21.6817C13.8432 21.1809 11.5932 19.0554 11.1101 18.3835C10.6143 17.7116 10.1948 17.052 10.0423 16.6733L9.91519 16.3435L10.6271 15.635C11.2372 15.0242 11.3516 14.8654 11.466 14.4989C11.6948 13.7415 11.644 13.6194 10.144 10.8586C9.06349 8.87969 8.69485 8.29333 8.45332 8.07345C7.95756 7.67033 7.42366 7.56039 6.86434 7.75584ZM7.62705 9.01406C7.90671 9.30724 10.3093 13.7537 10.3093 13.9858C10.3093 14.1569 10.144 14.3645 9.57197 14.9265C8.79654 15.696 8.66942 15.8915 8.66942 16.319C8.66942 16.6367 8.98722 17.4062 9.35587 18.0415C10.1821 19.3974 12.0635 21.3641 13.6271 22.488C14.555 23.1598 15.6991 23.7462 16.2203 23.8195C16.8813 23.9172 17.0465 23.8317 17.9491 22.94C19.1059 21.8161 18.8516 21.7795 21.6482 23.3797C24.2923 24.8822 24.2796 24.87 24.2796 25.0777C24.2796 25.3464 20.822 28.608 20.4152 28.7302C19.7033 28.9501 17.7711 28.6447 16.322 28.0828C14.8474 27.5086 13.1821 26.5436 11.6186 25.3464C10.5762 24.5524 8.26265 22.3169 7.37282 21.2542C5.58044 19.1042 4.29654 16.8688 3.76265 14.9509C3.53383 14.1202 3.43214 12.9597 3.57197 12.5444C3.64824 12.3245 4.06773 11.8725 5.4279 10.541C6.40671 9.60041 7.25841 8.83082 7.32197 8.83082C7.41095 8.85525 7.55078 8.92855 7.62705 9.01406Z" fill="#005473"/>
</g>
</g>
</g>
</svg>
