<svg width="31" height="30" viewBox="0 0 31 30" fill="none" xmlns="http://www.w3.org/2000/svg">
<g id="Group">
<g id="Group_2">
<g id="Group_3">
<path id="Vector" d="M14.3562 0.0255334C10.7328 0.306401 7.51624 1.7618 4.92265 4.26407C2.71047 6.40888 1.26111 9.03882 0.612713 12.0901C0.49829 12.6646 0.485577 12.805 0.511004 15.3456L0.536431 18.001L0.714423 18.716C1.45182 21.5629 2.9266 24.129 4.89722 26.0313C6.81699 27.8952 9.25801 29.2485 11.8135 29.8868C12.2839 30.0017 12.4364 30.0145 15.564 29.989L18.8187 29.9762L19.4671 29.7847C21.5267 29.1591 23.3193 28.2271 24.8958 26.9505C26.1164 25.9547 27.464 24.4099 28.3031 23.0439C30.439 19.5458 31.0493 15.3073 29.994 11.2602C29.4855 9.30692 28.4302 7.23871 27.108 5.60458C24.6416 2.55334 20.9165 0.497901 17.0642 0.102134C16.2251 3.80477e-08 15.0555 -0.0255334 14.3562 0.0255334ZM16.6701 1.97884C22.3277 2.55334 27.019 6.68975 28.265 12.2305C29.0659 15.7669 28.3667 19.533 26.3579 22.5077C25.7858 23.363 25.3154 23.912 24.5271 24.6908C22.5184 26.6313 20.0901 27.8314 17.2549 28.2654C16.3268 28.4186 14.5342 28.4186 13.5934 28.2654C11.2922 27.908 9.27073 27.0654 7.49081 25.7249C2.46891 21.9332 0.816133 15.0647 3.53686 9.40905C4.32511 7.76215 5.55833 6.19184 6.98227 4.99178C9.66485 2.74484 13.2374 1.63414 16.6701 1.97884Z" fill="#005473"/>
<path id="Vector_2" d="M13.7078 3.72739C8.06289 4.58275 3.90552 9.44686 3.90552 15.1663C3.90552 19.5708 6.43554 23.6179 10.3641 25.5201C15.6275 28.0735 21.8572 26.3244 25.0484 21.3965C27.3877 17.7835 27.4894 13.0215 25.3154 9.30643C24.667 8.19573 23.6499 6.99566 22.6709 6.19136C21.069 4.87639 19.0602 3.99549 17.0006 3.70185C16.2378 3.61249 14.4706 3.62525 13.7078 3.72739ZM15.9327 5.47642C16.0344 5.54026 16.1869 5.70622 16.2505 5.84666C16.3776 6.10199 16.3776 6.16582 16.3776 10.4171V14.745L18.0813 16.4685C19.9502 18.358 19.9883 18.4218 19.8612 18.9325C19.6959 19.5325 19.0984 19.8262 18.539 19.5581C18.2847 19.4432 14.6359 15.7536 14.5596 15.5366C14.5087 15.4217 14.496 13.8258 14.496 10.6725V5.96156L14.6359 5.75729C14.8139 5.47642 15.2334 5.27215 15.5385 5.32322C15.6402 5.34876 15.8309 5.41259 15.9327 5.47642ZM7.07122 14.1833C7.30007 14.3237 7.54163 14.694 7.6052 15.0004C7.69419 15.4217 7.40178 15.9962 6.98223 16.2004C6.33383 16.5324 5.5583 16.1877 5.32945 15.4727C5.16417 14.9365 5.53287 14.2471 6.09227 14.0684C6.34654 13.979 6.85509 14.0429 7.07122 14.1833ZM24.7814 14.1195C25.2391 14.3365 25.4552 14.6812 25.4552 15.1919C25.4552 15.894 24.9594 16.3409 24.2347 16.3026C23.9296 16.2898 23.8279 16.2515 23.6371 16.0983C23.2939 15.8302 23.1286 15.46 23.1667 15.077C23.2557 14.2854 24.0694 13.7875 24.7814 14.1195ZM15.8691 23.0689C16.3268 23.2859 16.5429 23.6307 16.5429 24.1413C16.5429 24.7924 16.0725 25.2648 15.4241 25.2648C15.0681 25.2648 14.852 25.1882 14.6231 24.9839C14.1273 24.5243 14.1146 23.7839 14.585 23.3115C14.9537 22.954 15.4241 22.8646 15.8691 23.0689Z" fill="#005473"/>
</g>
</g>
</g>
</svg>
